<svg xmlns="http://www.w3.org/2000/svg" width="1260" height="290" viewBox="0 0 1260 290" role="img">
<style>text{font-family:system-ui,-apple-system,BlinkMacSystemFont,"Segoe UI",sans-serif;fill:#172033}.title{font-size:18px;font-weight:700}.subtitle{font-size:12px;fill:#526072}.label{font-size:11px}.value{font-size:11px;font-weight:600}.grid{stroke:#d9e0ea;stroke-width:1}.track{fill:#edf1f6}</style>
<rect width="100%" height="100%" fill="#ffffff"/>
<text class="title" x="20" y="28">Operational performance: token usage</text>
<text class="subtitle" x="20" y="48">Provider-reported total tokens per attempted decision. Lower is not necessarily lower cost across providers.</text>
<text class="title" x="20" y="78">Choice</text>
<line class="grid" x1="20" y1="88" x2="405" y2="88"/>
<text class="label" x="20" y="120">JEV</text>
<rect class="track" x="165" y="109" width="190" height="14" rx="3"/>
<rect x="165" y="109" width="190.00" height="14" rx="3" fill="#2563eb"/>
<text class="value" x="361" y="120">2,867</text>
<text class="label" x="20" y="148">DeepSeek V3.2</text>
<rect class="track" x="165" y="137" width="190" height="14" rx="3"/>
<rect x="165" y="137" width="85.93" height="14" rx="3" fill="#9333ea"/>
<text class="value" x="361" y="148">1,297</text>
<text class="label" x="20" y="176">Claude Haiku 4.5</text>
<rect class="track" x="165" y="165" width="190" height="14" rx="3"/>
<rect x="165" y="165" width="154.16" height="14" rx="3" fill="#ea580c"/>
<text class="value" x="361" y="176">2,326</text>
<text class="label" x="20" y="204">Claude Sonnet 5</text>
<rect class="track" x="165" y="193" width="190" height="14" rx="3"/>
<rect x="165" y="193" width="135.06" height="14" rx="3" fill="#d97706"/>
<text class="value" x="361" y="204">2,038</text>
<text class="label" x="20" y="232">GPT-5.6 Luna</text>
<rect class="track" x="165" y="221" width="190" height="14" rx="3"/>
<rect x="165" y="221" width="106.57" height="14" rx="3" fill="#0891b2"/>
<text class="value" x="361" y="232">1,608</text>
<text class="label" x="20" y="260">GPT-5.6 Sol</text>
<rect class="track" x="165" y="249" width="190" height="14" rx="3"/>
<rect x="165" y="249" width="76.06" height="14" rx="3" fill="#059669"/>
<text class="value" x="361" y="260">1,148</text>
<text class="title" x="440" y="78">Noul</text>
<line class="grid" x1="440" y1="88" x2="825" y2="88"/>
<text class="label" x="440" y="120">JEV</text>
<rect class="track" x="585" y="109" width="190" height="14" rx="3"/>
<rect x="585" y="109" width="190.00" height="14" rx="3" fill="#2563eb"/>
<text class="value" x="781" y="120">382</text>
<text class="label" x="440" y="148">DeepSeek V3.2</text>
<rect class="track" x="585" y="137" width="190" height="14" rx="3"/>
<rect x="585" y="137" width="97.00" height="14" rx="3" fill="#9333ea"/>
<text class="value" x="781" y="148">195</text>
<text class="label" x="440" y="176">Claude Haiku 4.5</text>
<rect class="track" x="585" y="165" width="190" height="14" rx="3"/>
<rect x="585" y="165" width="182.37" height="14" rx="3" fill="#ea580c"/>
<text class="value" x="781" y="176">367</text>
<text class="label" x="440" y="204">Claude Sonnet 5</text>
<rect class="track" x="585" y="193" width="190" height="14" rx="3"/>
<rect x="585" y="193" width="141.68" height="14" rx="3" fill="#d97706"/>
<text class="value" x="781" y="204">285</text>
<text class="label" x="440" y="232">GPT-5.6 Luna</text>
<rect class="track" x="585" y="221" width="190" height="14" rx="3"/>
<rect x="585" y="221" width="97.41" height="14" rx="3" fill="#0891b2"/>
<text class="value" x="781" y="232">196</text>
<text class="label" x="440" y="260">GPT-5.6 Sol</text>
<rect class="track" x="585" y="249" width="190" height="14" rx="3"/>
<rect x="585" y="249" width="103.41" height="14" rx="3" fill="#059669"/>
<text class="value" x="781" y="260">208</text>
<text class="title" x="860" y="78">Score</text>
<line class="grid" x1="860" y1="88" x2="1245" y2="88"/>
<text class="label" x="860" y="120">JEV</text>
<rect class="track" x="1005" y="109" width="190" height="14" rx="3"/>
<rect x="1005" y="109" width="141.74" height="14" rx="3" fill="#2563eb"/>
<text class="value" x="1201" y="120">484</text>
<text class="label" x="860" y="148">DeepSeek V3.2</text>
<rect class="track" x="1005" y="137" width="190" height="14" rx="3"/>
<rect x="1005" y="137" width="106.53" height="14" rx="3" fill="#9333ea"/>
<text class="value" x="1201" y="148">364</text>
<text class="label" x="860" y="176">Claude Haiku 4.5</text>
<rect class="track" x="1005" y="165" width="190" height="14" rx="3"/>
<rect x="1005" y="165" width="190.00" height="14" rx="3" fill="#ea580c"/>
<text class="value" x="1201" y="176">649</text>
<text class="label" x="860" y="204">Claude Sonnet 5</text>
<rect class="track" x="1005" y="193" width="190" height="14" rx="3"/>
<rect x="1005" y="193" width="146.16" height="14" rx="3" fill="#d97706"/>
<text class="value" x="1201" y="204">499</text>
<text class="label" x="860" y="232">GPT-5.6 Luna</text>
<rect class="track" x="1005" y="221" width="190" height="14" rx="3"/>
<rect x="1005" y="221" width="150.93" height="14" rx="3" fill="#0891b2"/>
<text class="value" x="1201" y="232">516</text>
<text class="label" x="860" y="260">GPT-5.6 Sol</text>
<rect class="track" x="1005" y="249" width="190" height="14" rx="3"/>
<rect x="1005" y="249" width="124.65" height="14" rx="3" fill="#059669"/>
<text class="value" x="1201" y="260">426</text>
</svg>